<svg xmlns="http://www.w3.org/2000/svg" viewBox="0 0 227.78 40.63"><defs><style>.cls-1,.cls-2{fill:#fff;}.cls-1{fill-rule:evenodd;}</style></defs><title>andglobal1</title><g id="Layer_2" data-name="Layer 2"><g id="Layer_1-2" data-name="Layer 1"><path class="cls-1" d="M11.37,32.12a4.26,4.26,0,0,0,0,8.51H33.3a10.4,10.4,0,0,0,10.23-8.51Z"/><path class="cls-1" d="M19.72,10.3A4.25,4.25,0,1,0,12.36,6l0,.06L1.39,25h0a10.38,10.38,0,0,0,2.26,13.1Z"/><path class="cls-1" d="M34.45,28.44a4.25,4.25,0,0,0,7.37-4.25l0-.06L30.85,5.2h0A10.39,10.39,0,0,0,18.37.6Z"/><path class="cls-2" d="M56.08,30,63,14.53a2.08,2.08,0,0,1,2-1.34h.16a2,2,0,0,1,2,1.34L74,30a1.37,1.37,0,0,1,.19.7,1.54,1.54,0,0,1-1.55,1.57,1.69,1.69,0,0,1-1.6-1.15l-1.52-3.49H60.48l-1.58,3.6a1.56,1.56,0,0,1-1.52,1,1.51,1.51,0,0,1-1.52-1.52A1.63,1.63,0,0,1,56.08,30Zm12.21-5.28L65,17.17l-3.28,7.54ZM76.42,15a1.65,1.65,0,0,1,1.66-1.66h.34a2.07,2.07,0,0,1,1.71,1l9.33,12.08V14.93a1.62,1.62,0,0,1,3.23,0V30.61a1.59,1.59,0,0,1-1.6,1.62H91a2.07,2.07,0,0,1-1.71-1l-9.6-12.43V30.66a1.62,1.62,0,0,1-3.23,0Zm19.73.1a1.63,1.63,0,0,1,1.66-1.65h5.3c5.87,0,9.92,4,9.92,9.28v.05c0,5.26-4,9.34-9.92,9.34h-5.3a1.63,1.63,0,0,1-1.66-1.66Zm7,14a6.08,6.08,0,0,0,6.48-6.29v-.06a6.12,6.12,0,0,0-6.48-6.34H99.43V29.14Zm18.4-6.29v-.06a9.51,9.51,0,0,1,9.63-9.65A10.14,10.14,0,0,1,137.51,15a1.68,1.68,0,0,1,.67,1.34A1.63,1.63,0,0,1,136.55,18a1.72,1.72,0,0,1-1-.37A7.1,7.1,0,0,0,131,16.15,6.32,6.32,0,0,0,125,22.74v.05c0,3.84,2.54,6.67,6.35,6.67a7.66,7.66,0,0,0,4.51-1.41v-3.5h-3.68a1.43,1.43,0,0,1-1.47-1.41,1.46,1.46,0,0,1,1.47-1.44h5.2A1.63,1.63,0,0,1,139,23.35v5a2.26,2.26,0,0,1-1.15,2.08,11.86,11.86,0,0,1-6.64,2A9.26,9.26,0,0,1,121.51,22.85Zm20.4-7.9a1.64,1.64,0,0,1,3.28,0V29.14h8.46a1.5,1.5,0,0,1,0,3H143.57a1.63,1.63,0,0,1-1.66-1.66Zm13.28,7.9v-.06a9.76,9.76,0,0,1,19.52-.05v.05a9.76,9.76,0,0,1-19.52.06Zm16.08,0v-.06a6.4,6.4,0,0,0-6.34-6.64,6.31,6.31,0,0,0-6.3,6.59v.05A6.38,6.38,0,0,0,165,29.41,6.29,6.29,0,0,0,171.27,22.85Zm6.08-7.74A1.63,1.63,0,0,1,179,13.46h6.72a6.75,6.75,0,0,1,4.88,1.65,4.18,4.18,0,0,1,1.26,3.1v.05a4.44,4.44,0,0,1-2.67,4.16c2.19.75,3.71,2,3.71,4.53V27c0,3.33-2.75,5.12-6.91,5.12h-7a1.63,1.63,0,0,1-1.65-1.66Zm7.71,6.22c2.1,0,3.52-.83,3.52-2.54v-.05c0-1.47-1.18-2.37-3.28-2.37h-4.72v5Zm1,7.89c2.24,0,3.6-.88,3.6-2.56v-.05c0-1.58-1.26-2.51-3.84-2.51h-5.2v5.12Zm8.18.77,6.94-15.46a2.08,2.08,0,0,1,2-1.34h.16a2.06,2.06,0,0,1,1.95,1.34L212.15,30a1.48,1.48,0,0,1,.19.7,1.54,1.54,0,0,1-1.55,1.57,1.68,1.68,0,0,1-1.6-1.15l-1.52-3.49H198.6L197,31.22a1.58,1.58,0,0,1-1.52,1A1.51,1.51,0,0,1,194,30.74,1.74,1.74,0,0,1,194.2,30Zm12.22-5.28-3.28-7.54-3.28,7.54ZM214.55,15a1.64,1.64,0,0,1,3.28,0V29.14h8.45a1.5,1.5,0,1,1,0,3H216.2a1.63,1.63,0,0,1-1.65-1.66Z"/></g></g></svg>