<svg xmlns="http://www.w3.org/2000/svg" xmlns:xlink="http://www.w3.org/1999/xlink" viewBox="0 0 250.48 250.48"><defs><style>.cls-1{fill:url(#linear-gradient);}.cls-2{fill:#fff;}</style><linearGradient id="linear-gradient" y1="125.24" x2="250.48" y2="125.24" gradientUnits="userSpaceOnUse"><stop offset="0" stop-color="#f99f34"/><stop offset="0.24" stop-color="#f2853b"/><stop offset="0.48" stop-color="#ed723f"/><stop offset="0.73" stop-color="#ea6742"/><stop offset="1" stop-color="#e96343"/></linearGradient></defs><title>beta</title><g id="Layer_2" data-name="Layer 2"><g id="Layer_1-2" data-name="Layer 1"><circle class="cls-1" cx="125.24" cy="125.24" r="125.24"/></g><g id="Layer_4" data-name="Layer 4"><path class="cls-2" d="M179.91,193.24h-104v-90h104Zm-98-6h92v-78h-92Z"/><path class="cls-2" d="M176.91,109.24h-98A3,3,0,0,1,76,106.89l-9.33-42a3,3,0,0,1,.59-2.52,3,3,0,0,1,2.34-1.13H186.24a3,3,0,0,1,2.34,1.13,3,3,0,0,1,.59,2.52l-9.33,42A3,3,0,0,1,176.91,109.24Zm-95.59-6H174.5l8-36H73.32Z"/><path class="cls-2" d="M176.91,109.24h-98a3,3,0,0,1-2.12-.88L53.45,85a3,3,0,0,1,2.13-5.12H67.24v6H62.82l17.33,17.33h95.52L193,85.91h-4.42v-6h11.66A3,3,0,0,1,202.36,85L179,108.36A3,3,0,0,1,176.91,109.24Z"/><rect class="cls-2" x="53.24" y="114.91" width="18.67" height="6"/><rect class="cls-2" x="57.91" y="128.91" width="32.67" height="6"/><rect class="cls-2" x="53.24" y="145.24" width="18.67" height="6"/><rect class="cls-2" x="62.58" y="161.58" width="23.33" height="6"/><rect class="cls-2" x="57.91" y="177.91" width="14" height="6"/><path class="cls-2" d="M153.58,167.58H102.24a3,3,0,0,1-3-3V131.91a3,3,0,0,1,3-3h32.67v6H105.24v26.67h45.34V145.91h6v18.67A3,3,0,0,1,153.58,167.58Z"/><path class="cls-2" d="M130.24,155.91a3,3,0,0,1-2.12-.88l-11.67-11.67,4.25-4.24,9.54,9.55,23.55-23.55,4.24,4.24L132.36,155A3,3,0,0,1,130.24,155.91Z"/><rect class="cls-2" x="78.91" y="70.58" width="98" height="6"/><rect class="cls-2" x="99.91" y="119.58" width="4.67" height="6"/><rect class="cls-2" x="109.24" y="119.58" width="4.67" height="6"/><rect class="cls-2" x="118.58" y="119.58" width="4.67" height="6"/></g></g></svg>