<svg xmlns="http://www.w3.org/2000/svg" xmlns:xlink="http://www.w3.org/1999/xlink" viewBox="0 0 156 156"><defs><style>.cls-1{fill:url(#linear-gradient);}</style><linearGradient id="linear-gradient" y1="78" x2="156" y2="78" gradientUnits="userSpaceOnUse"><stop offset="0" stop-color="#fd9f31"/><stop offset="1" stop-color="#e96443"/></linearGradient></defs><title>convenient</title><g id="Layer_2" data-name="Layer 2"><g id="ICONS_1.0" data-name="ICONS 1.0"><g id="LINE_ICONS" data-name="LINE ICONS"><g id="_08._MARKET_AND_ECONOMICS" data-name="08. MARKET AND ECONOMICS"><g id="_08_funds_raising" data-name="08_funds_raising"><path class="cls-1" d="M124,102.77H102.19v-6H124a26.06,26.06,0,0,0,26-26c0-13.46-9.11-23.61-21.19-23.61h-3v-3c0-11.76-7-18.78-18.78-18.78h-4.18L102,23.81C95.81,12.66,84.13,6,70.74,6A35.75,35.75,0,0,0,35,41.71v3H32a26,26,0,0,0,0,52.06H53.81v6H32a32,32,0,0,1-2.9-63.93A41.76,41.76,0,0,1,70.74,0c15,0,28.15,7.2,35.6,19.35H107c14.08,0,23.5,8.51,24.66,21.93,14,1.47,24.31,13.64,24.31,29.46A32.07,32.07,0,0,1,124,102.77ZM88.26,87.68h-6v24.19h6Zm0-9.68h-6v4.84h6Zm0-9.68h-6v4.84h6Zm0-9.67h-6v4.83h6Zm-14.52,0h-6V82.84h6Zm0,38.7h-6v4.84h6Zm0-9.67h-6v4.84h6Zm0,19.35h-6v4.84h6Zm-3-86.51v-6c-14.48,0-27.19,13.83-27.19,29.61h6C49.55,30.61,60.74,20.52,70.74,20.52Zm27.2,115.54A19.94,19.94,0,1,0,78,156,20,20,0,0,0,97.94,136.06Zm-6,0A13.94,13.94,0,1,1,78,122.13,14,14,0,0,1,91.94,136.06Zm-3.68,0A10.26,10.26,0,1,0,78,146.32,10.27,10.27,0,0,0,88.26,136.06Zm-6,0A4.26,4.26,0,1,1,78,131.81,4.26,4.26,0,0,1,82.26,136.06Z"/></g></g></g></g></g></svg>