<svg xmlns="http://www.w3.org/2000/svg" xmlns:xlink="http://www.w3.org/1999/xlink" viewBox="0 0 156 156"><defs><style>.cls-1{fill:url(#linear-gradient);}.cls-2{fill:url(#linear-gradient-2);}.cls-3{fill:url(#linear-gradient-3);}.cls-4{fill:url(#linear-gradient-4);}.cls-5{fill:url(#linear-gradient-6);}.cls-6{fill:url(#linear-gradient-7);}.cls-7{fill:url(#linear-gradient-8);}.cls-8{fill:url(#linear-gradient-9);}.cls-9{fill:url(#linear-gradient-10);}.cls-10{fill:url(#linear-gradient-11);}.cls-11{fill:url(#linear-gradient-12);}.cls-12{fill:url(#linear-gradient-13);}.cls-13{fill:url(#linear-gradient-14);}.cls-14{fill:url(#linear-gradient-15);}.cls-15{fill:url(#linear-gradient-17);}.cls-16{fill:url(#linear-gradient-19);}.cls-17{fill:url(#linear-gradient-20);}</style><linearGradient id="linear-gradient" y1="99.54" x2="156" y2="99.54" gradientUnits="userSpaceOnUse"><stop offset="0" stop-color="#fd9f31"/><stop offset="1" stop-color="#e96443"/></linearGradient><linearGradient id="linear-gradient-2" y1="116.86" y2="116.86" xlink:href="#linear-gradient"/><linearGradient id="linear-gradient-3" y1="105.72" y2="105.72" xlink:href="#linear-gradient"/><linearGradient id="linear-gradient-4" y1="58.59" y2="58.59" xlink:href="#linear-gradient"/><linearGradient id="linear-gradient-6" y1="58.65" y2="58.65" xlink:href="#linear-gradient"/><linearGradient id="linear-gradient-7" y1="116.89" y2="116.89" xlink:href="#linear-gradient"/><linearGradient id="linear-gradient-8" y1="131.23" y2="131.23" xlink:href="#linear-gradient"/><linearGradient id="linear-gradient-9" y1="114.87" y2="114.87" xlink:href="#linear-gradient"/><linearGradient id="linear-gradient-10" y1="140.9" y2="140.9" xlink:href="#linear-gradient"/><linearGradient id="linear-gradient-11" y1="95.07" y2="95.07" xlink:href="#linear-gradient"/><linearGradient id="linear-gradient-12" y1="114.29" y2="114.29" xlink:href="#linear-gradient"/><linearGradient id="linear-gradient-13" y1="135.02" y2="135.02" xlink:href="#linear-gradient"/><linearGradient id="linear-gradient-14" y1="115.77" y2="115.77" xlink:href="#linear-gradient"/><linearGradient id="linear-gradient-15" y1="115.77" y2="115.77" xlink:href="#linear-gradient"/><linearGradient id="linear-gradient-17" y1="57.8" y2="57.8" xlink:href="#linear-gradient"/><linearGradient id="linear-gradient-19" y1="48.03" y2="48.03" xlink:href="#linear-gradient"/><linearGradient id="linear-gradient-20" y1="61.06" y2="61.06" xlink:href="#linear-gradient"/></defs><title>custom</title><g id="Layer_2" data-name="Layer 2"><g id="ICONS_1.0" data-name="ICONS 1.0"><g id="LINE_ICONS" data-name="LINE ICONS"><g id="_17._DESIGN_THINKING" data-name="17. DESIGN THINKING"><g id="_17_client_service" data-name="17_client_service"><path class="cls-1" d="M89.52,105.9l6-1.5V93.19a24.74,24.74,0,0,1-6,4.44Z"/><polygon class="cls-2" points="89.52 107.03 89.52 105.9 78 108.78 81 109.53 81 114.21 96.64 110.3 103.73 115.97 88.34 122.81 81 115.47 81 117.95 78 120.95 87.01 129.97 109.61 119.92 108.5 119.56 110.4 113.86 110.91 114.03 98.07 103.76 95.52 104.4 95.52 107.03 89.52 107.03"/><polygon class="cls-3" points="89.52 107.03 95.52 107.03 95.52 104.4 89.52 105.9 89.52 107.03"/><path class="cls-4" d="M102.19,61.65h2.42v-6h-2.42a1.92,1.92,0,0,1-.58-.11v6.08Z"/><path class="cls-4" d="M53.81,55.65v6l.58,0V55.54A1.92,1.92,0,0,1,53.81,55.65Z"/><rect class="cls-5" x="51.39" y="55.65" width="2.42" height="6"/><polygon class="cls-6" points="108.5 119.56 109.61 119.92 115.18 117.45 110.91 114.03 110.4 113.86 108.5 119.56"/><rect class="cls-7" x="75" y="128.81" width="6" height="4.84"/><polygon class="cls-8" points="81 115.47 81 114.21 81 109.53 78 108.78 75 109.53 75 114.21 75 115.47 75 117.95 78 120.95 81 117.95 81 115.47"/><rect class="cls-9" x="75" y="138.48" width="6" height="4.84"/><path class="cls-10" d="M89.52,92.52v5.11a24.74,24.74,0,0,0,6-4.44v-.67Z"/><path class="cls-11" d="M12.59,120.78q-1.89-2.88-3.49-5.91l-5.51-1.1-1.18,5.88,12.1,2.42a3,3,0,0,0,.59.06A3,3,0,0,0,18,119.72l2.42-12.1-5.89-1.18-.86,4.32a70.2,70.2,0,0,0,3.89,6.72Z"/><path class="cls-12" d="M117.66,116.28,110.91,114l4.27,3.42-5.57,2.47,6.15,2.06c8.71,2.9,11.35,6.55,12.14,8.31A71.28,71.28,0,0,1,78,150a71.81,71.81,0,0,1-49.89-19.71c.79-1.77,3.44-5.42,12.13-8.31l6.15-2.06-5.57-2.47L45.09,114l-6.75,2.25c-16.1,5.37-16.57,14-16.57,14.95v1.24l.88.88A77.7,77.7,0,0,0,78,156c21.23,0,40.89-8.05,55.36-22.66l.87-.88v-1.23C134.23,130.26,133.76,121.65,117.66,116.28Z"/><path class="cls-13" d="M9.1,114.87q1.61,3,3.49,5.91l5-3.3a70.2,70.2,0,0,1-3.89-6.72l-1,4.84Z"/><path class="cls-14" d="M143.41,120.78q1.89-2.88,3.49-5.91l-3.64.73-1-4.84a70.2,70.2,0,0,1-3.89,6.72Z"/><path class="cls-11" d="M146.9,114.87q-1.6,3-3.49,5.91l-5-3.3a70.2,70.2,0,0,0,3.89-6.72l-.87-4.32-5.88,1.18,2.42,12.1a3,3,0,0,0,3.53,2.35l12.1-2.42-1.18-5.88Z"/><path class="cls-15" d="M146.9,114.87a78,78,0,1,0-137.8,0l3.64.73,1-4.84a72,72,0,1,1,128.58,0l1,4.84Z"/><polygon class="cls-6" points="46.39 119.92 47.5 119.56 45.6 113.86 45.09 114.03 40.82 117.45 46.39 119.92"/><path class="cls-16" d="M61.65,53.81V49a1.83,1.83,0,0,1,1.83-1.84H83.55l6-3v3h3A1.83,1.83,0,0,1,94.35,49v4.84a7.85,7.85,0,0,0,7.26,7.81V55.54a1.82,1.82,0,0,1-1.26-1.73V49a7.85,7.85,0,0,0-4.83-7.24V34.44L82.13,41.13H63.48A7.84,7.84,0,0,0,55.65,49v4.84a1.82,1.82,0,0,1-1.26,1.73v6.08A7.85,7.85,0,0,0,61.65,53.81Z"/><path class="cls-17" d="M66.48,92.52v5.11a25.76,25.76,0,0,0,23,0V92.52h6v.67a29.46,29.46,0,0,0,3.4-4.12,38.06,38.06,0,0,0,6.25-19.48l2.44-2.44V34.45A12.69,12.69,0,0,0,94.94,21.77H68.32A10.29,10.29,0,0,0,58.51,29,10.27,10.27,0,0,0,48.39,39.29V67.15l2.44,2.44a38.06,38.06,0,0,0,6.25,19.48,29.46,29.46,0,0,0,3.4,4.12v-.67Zm-9.67-24.2V67.08l-2.42-2.42v-3l-.58,0H51.39v-6h2.42a1.92,1.92,0,0,0,.58-.11V39.29A4.26,4.26,0,0,1,58.65,35h5.41V32a4.26,4.26,0,0,1,4.26-4.26H94.94a6.68,6.68,0,0,1,6.67,6.68V55.54a1.92,1.92,0,0,0,.58.11h2.42v6h-2.42l-.58,0v3l-2.42,2.42v1.24c0,19-13,26-21.19,26S56.81,87.29,56.81,68.32Z"/><polygon class="cls-3" points="66.48 107.03 66.48 105.9 60.48 104.4 60.48 107.03 66.48 107.03"/><path class="cls-10" d="M66.48,92.52h-6v.67a24.74,24.74,0,0,0,6,4.44Z"/><polygon class="cls-2" points="47.5 119.56 46.39 119.92 68.99 129.97 78 120.95 75 117.95 75 115.47 67.66 122.81 52.27 115.97 59.36 110.3 75 114.21 75 109.53 78 108.78 66.48 105.9 66.48 107.03 60.48 107.03 60.48 104.4 57.93 103.76 45.09 114.03 45.6 113.86 47.5 119.56"/><path class="cls-1" d="M66.48,97.63a24.74,24.74,0,0,1-6-4.44V104.4l6,1.5Z"/></g></g></g></g></g></svg>