<svg xmlns="http://www.w3.org/2000/svg" xmlns:xlink="http://www.w3.org/1999/xlink" viewBox="0 0 157 173.07"><defs><style>.cls-1{fill:none;}.cls-2{fill:url(#linear-gradient);}.cls-3{fill:url(#linear-gradient-2);}.cls-4{fill:url(#linear-gradient-3);}.cls-5{fill:url(#linear-gradient-4);}.cls-6{fill:url(#linear-gradient-5);}.cls-7{fill:url(#linear-gradient-6);}.cls-8{fill:url(#linear-gradient-7);}.cls-9{fill:url(#linear-gradient-8);}.cls-10{fill:url(#linear-gradient-9);}.cls-11{fill:url(#linear-gradient-11);}.cls-12{fill:url(#linear-gradient-13);}.cls-13{fill:url(#linear-gradient-15);}.cls-14{fill:url(#linear-gradient-16);}.cls-15{fill:url(#linear-gradient-17);}.cls-16{fill:url(#linear-gradient-18);}.cls-17{fill:url(#linear-gradient-19);}.cls-18{fill:url(#linear-gradient-20);}.cls-19{fill:url(#linear-gradient-21);}.cls-20{fill:url(#linear-gradient-22);}.cls-21{fill:url(#linear-gradient-26);}.cls-22{fill:url(#linear-gradient-30);}</style><linearGradient id="linear-gradient" y1="97.25" x2="157" y2="97.25" gradientUnits="userSpaceOnUse"><stop offset="0" stop-color="#fd9f31"/><stop offset="1" stop-color="#e96443"/></linearGradient><linearGradient id="linear-gradient-2" y1="118.65" x2="157" y2="118.65" xlink:href="#linear-gradient"/><linearGradient id="linear-gradient-3" y1="134" x2="157" y2="134" xlink:href="#linear-gradient"/><linearGradient id="linear-gradient-4" y1="103.81" x2="157" y2="103.81" xlink:href="#linear-gradient"/><linearGradient id="linear-gradient-5" y1="35.64" x2="157" y2="35.64" xlink:href="#linear-gradient"/><linearGradient id="linear-gradient-6" y1="123.05" x2="157" y2="123.05" xlink:href="#linear-gradient"/><linearGradient id="linear-gradient-7" y1="34.3" x2="157" y2="34.3" xlink:href="#linear-gradient"/><linearGradient id="linear-gradient-8" y1="39.56" x2="157" y2="39.56" gradientTransform="translate(34.06 -3.13) rotate(44.99)" xlink:href="#linear-gradient"/><linearGradient id="linear-gradient-9" y1="97.25" x2="157" y2="97.25" xlink:href="#linear-gradient"/><linearGradient id="linear-gradient-11" y1="158.86" x2="157" y2="158.86" xlink:href="#linear-gradient"/><linearGradient id="linear-gradient-13" y1="39.56" x2="157" y2="39.56" gradientTransform="translate(67.88 -84.72) rotate(45.01)" xlink:href="#linear-gradient"/><linearGradient id="linear-gradient-15" y1="42.26" x2="157" y2="42.26" xlink:href="#linear-gradient"/><linearGradient id="linear-gradient-16" y1="24.97" x2="157" y2="24.97" xlink:href="#linear-gradient"/><linearGradient id="linear-gradient-17" y1="11.16" x2="157" y2="11.16" xlink:href="#linear-gradient"/><linearGradient id="linear-gradient-18" y1="45.04" x2="157" y2="45.04" xlink:href="#linear-gradient"/><linearGradient id="linear-gradient-19" y1="42.26" x2="157" y2="42.26" xlink:href="#linear-gradient"/><linearGradient id="linear-gradient-20" y1="21.02" x2="157" y2="21.02" xlink:href="#linear-gradient"/><linearGradient id="linear-gradient-21" y1="45.04" x2="157" y2="45.04" xlink:href="#linear-gradient"/><linearGradient id="linear-gradient-22" y1="97.7" x2="157" y2="97.7" xlink:href="#linear-gradient"/><linearGradient id="linear-gradient-26" y1="23.18" x2="157" y2="23.18" xlink:href="#linear-gradient"/><linearGradient id="linear-gradient-30" y1="17.82" x2="157" y2="17.82" xlink:href="#linear-gradient"/></defs><title>Asset 4</title><g id="Layer_2" data-name="Layer 2"><g id="ICONS_1.0" data-name="ICONS 1.0"><g id="LINE_ICONS" data-name="LINE ICONS"><g id="_13._SHOPPING_AND_RETAIL" data-name="13. SHOPPING AND RETAIL"><g id="_13_fast_delivery" data-name="13_fast_delivery"><path class="cls-1" d="M82,14.21v6.31a7.21,7.21,0,1,0-7,0V14.21Z"/><path class="cls-1" d="M9.68,97.25A68.82,68.82,0,1,0,78.5,28.43,68.89,68.89,0,0,0,9.68,97.25Zm9.89,3.5H14.21v-7h5.36ZM82,161.54H75v-5.36h7Zm55.43-67.79h5.36v7h-5.36ZM75,33h7v5.36H75Zm3.5,52.75a11.54,11.54,0,1,1-5.29,21.78L59,121.73A31.32,31.32,0,1,0,78.5,65.93v-7A38.32,38.32,0,1,1,54,126.71l-6.43,6.43A47.39,47.39,0,1,0,78.5,49.86v-7a54.39,54.39,0,1,1-38.45,92.86l1-1-2.48-2.49,29.73-29.73A11.51,11.51,0,0,1,78.5,85.71Zm-21.43,8h5.36v7H57.07Zm-10.71,0h5.35v7H46.36Zm-10.72,0H41v7H35.64Zm-5.35,7H24.93v-7h5.36Z"/><path class="cls-2" d="M78.5,135.57a38.32,38.32,0,0,0,0-76.64v7A31.32,31.32,0,1,1,59,121.73l-5,5A38.09,38.09,0,0,0,78.5,135.57Z"/><path class="cls-3" d="M68.26,102.54,38.53,132.27,41,134.76l4-4c.83.83,1.7,1.61,2.57,2.37L54,126.71c-.89-.75-1.75-1.53-2.58-2.36l4.94-4.95A31.86,31.86,0,0,0,59,121.73l14.24-14.24A11.59,11.59,0,0,1,68.26,102.54Z"/><path class="cls-4" d="M41,134.76l2.47,2.47,4.08-4.09c-.87-.76-1.74-1.54-2.57-2.37Z"/><path class="cls-5" d="M70.67,100.13l-2.41,2.41a11.59,11.59,0,0,0,4.95,4.95l2.41-2.41Z"/><rect class="cls-6" x="75" y="32.96" width="7" height="5.36"/><path class="cls-7" d="M51.41,124.35c.83.83,1.69,1.61,2.58,2.36l5-5a31.86,31.86,0,0,1-2.62-2.33Z"/><path class="cls-8" d="M22.05,35.85l2.47,2.47,5.56-5.56a3.49,3.49,0,0,0,0-4.95l-8-8a3.49,3.49,0,0,0-4.95,0L1,35.85A3.49,3.49,0,0,0,1,40.8l8,8a3.49,3.49,0,0,0,4.95,0l5.56-5.56L17.1,40.8ZM11.54,41.41,8.45,38.32,19.57,27.2l3.09,3.09Z"/><rect class="cls-9" x="17.31" y="37.81" width="7" height="3.5" transform="translate(-21.88 26.3) rotate(-44.99)"/><rect class="cls-10" x="137.43" y="93.75" width="5.36" height="7"/><path class="cls-8" d="M139.91,40.8l-2.48,2.47L143,48.83a3.49,3.49,0,0,0,4.95,0l8-8a3.51,3.51,0,0,0,0-4.95L139.9,19.78a3.49,3.49,0,0,0-5,0l-8,8a3.49,3.49,0,0,0,0,4.95l5.56,5.56L135,35.85Zm-2.48-13.6,11.12,11.12-3.09,3.09L134.34,30.29Z"/><rect class="cls-11" x="75" y="156.18" width="7" height="5.36"/><rect class="cls-10" x="14.21" y="93.75" width="5.36" height="7"/><rect class="cls-12" x="134.44" y="36.06" width="3.5" height="7" transform="translate(11.92 107.9) rotate(-45.01)"/><path class="cls-2" d="M41,134.76l-1,1A54.39,54.39,0,1,0,78.5,42.86v7a47.39,47.39,0,1,1-30.94,83.28l-4.08,4.09Z"/><path class="cls-13" d="M27.44,41.25l-2.92-2.93-4.95,5L22.5,46.2Q24.86,43.61,27.44,41.25Z"/><path class="cls-14" d="M78.5,28.43a14.22,14.22,0,0,0,11.66-6.1A73.2,73.2,0,0,0,82,21.52v3.41H75V21.52a73.2,73.2,0,0,0-8.16.81A14.23,14.23,0,0,0,78.5,28.43Z"/><path class="cls-15" d="M75,20.52a7.21,7.21,0,1,1,7,0v1a73.2,73.2,0,0,1,8.16.81,14.21,14.21,0,1,0-23.32,0A73.2,73.2,0,0,1,75,21.52Z"/><path class="cls-16" d="M30.09,43.89l-2.65-2.64q-2.58,2.36-4.94,5l2.64,2.64Z"/><path class="cls-17" d="M132.48,38.32l-2.92,2.93q2.58,2.36,4.95,5l2.92-2.93Z"/><path class="cls-18" d="M78.5,21.43c1.17,0,2.34,0,3.5.09v-1A7.15,7.15,0,0,1,78.5,21.43Z"/><path class="cls-19" d="M129.56,41.25l-2.64,2.64,5,5,2.64-2.64Q132.14,43.61,129.56,41.25Z"/><path class="cls-20" d="M126.92,43.89l2.64-2.64a75.65,75.65,0,0,0-39.4-18.92,14.22,14.22,0,0,1-11.66,6.1A68.82,68.82,0,1,1,9.68,97.25,68.89,68.89,0,0,1,78.5,28.43a14.23,14.23,0,0,1-11.66-6.1,75.57,75.57,0,0,0-39.4,18.92l2.65,2.64-4.95,5L22.5,46.2a75.82,75.82,0,1,0,112,0l-2.64,2.64Z"/><rect class="cls-10" x="57.07" y="93.75" width="5.36" height="7"/><rect class="cls-10" x="46.36" y="93.75" width="5.36" height="7"/><rect class="cls-10" x="35.64" y="93.75" width="5.36" height="7"/><path class="cls-21" d="M75,21.52v3.41h7V21.52c-1.16-.06-2.33-.09-3.5-.09S76.16,21.46,75,21.52Z"/><path class="cls-10" d="M70.67,100.13l5,5-2.41,2.41a11.58,11.58,0,1,0-4.95-4.95Zm7.83-7.42A4.54,4.54,0,1,1,74,97.25,4.55,4.55,0,0,1,78.5,92.71Z"/><rect class="cls-10" x="24.93" y="93.75" width="5.36" height="7"/><path class="cls-18" d="M75,20.52v1c1.16-.06,2.33-.09,3.5-.09A7.15,7.15,0,0,1,75,20.52Z"/><path class="cls-22" d="M82,20.52V14.21H75v6.31a7.19,7.19,0,0,0,7,0Z"/></g></g></g></g></g></svg>