<svg xmlns="http://www.w3.org/2000/svg" xmlns:xlink="http://www.w3.org/1999/xlink" viewBox="0 0 250.48 250.48"><defs><style>.cls-1{fill:url(#linear-gradient);}.cls-2{fill:#fff;}</style><linearGradient id="linear-gradient" y1="125.24" x2="250.48" y2="125.24" gradientUnits="userSpaceOnUse"><stop offset="0" stop-color="#f99f34"/><stop offset="0.24" stop-color="#f2853b"/><stop offset="0.48" stop-color="#ed723f"/><stop offset="0.73" stop-color="#ea6742"/><stop offset="1" stop-color="#e96343"/></linearGradient></defs><title>IPO</title><g id="Layer_2" data-name="Layer 2"><g id="Layer_1-2" data-name="Layer 1"><circle class="cls-1" cx="125.24" cy="125.24" r="125.24"/></g><g id="Layer_2-2" data-name="Layer 2"><path class="cls-2" d="M159.29,142.3H70.23v-6h87.82l34.5-34.5-34.5-34.5H70.23v-6h89.06a3,3,0,0,1,2.12.88l37.5,37.5a3,3,0,0,1,0,4.25l-37.5,37.5A3,3,0,0,1,159.29,142.3Z"/><path class="cls-2" d="M79.6,191.52H70.23a3,3,0,0,1-3-3V57.27a7.69,7.69,0,0,1,15.37,0v7h-6v-7a1.69,1.69,0,0,0-3.37,0V185.52H76.6V139.3h6v49.22A3,3,0,0,1,79.6,191.52Z"/><rect class="cls-2" x="76.6" y="71.34" width="6" height="60.94"/><rect class="cls-2" x="49.13" y="194.9" width="150" height="6"/><path class="cls-2" d="M149.92,121.21h-2.35a10,10,0,0,1-10-10V92.43a10,10,0,0,1,10-10h2.35a10,10,0,0,1,10,10v18.75A10,10,0,0,1,149.92,121.21ZM147.57,88.4a4,4,0,0,0-4,4v18.75a4,4,0,0,0,4,4h2.35a4,4,0,0,0,4-4V92.43a4,4,0,0,0-4-4Z"/><path class="cls-2" d="M117.76,120.55h-6V82.4h10a12.38,12.38,0,1,1,0,24.75h-4Zm0-19.4h4a6.38,6.38,0,1,0,0-12.75h-4Z"/><rect class="cls-2" x="91.32" y="82.4" width="14.06" height="6"/><rect class="cls-2" x="91.32" y="115.21" width="14.06" height="6"/><rect class="cls-2" x="95.35" y="85.4" width="6" height="32.81"/><path class="cls-2" d="M63.85,197.9h-6v-9.38a3,3,0,0,1,3-3H94.77L115,165.31a3,3,0,0,1,4.24,0l11.95,11.94,19-19a3,3,0,0,1,4.24,0l9.6,9.59,30.69-30.69,4.24,4.25L166.1,174.24a3,3,0,0,1-4.24,0l-9.6-9.6-19,19a3,3,0,0,1-4.25,0L117.1,171.67l-19,19a3,3,0,0,1-2.12.88H63.85Z"/><path class="cls-2" d="M199.79,153.37h-6V142.3H182.73v-6h14.06a3,3,0,0,1,3,3Z"/><rect class="cls-2" x="114.1" y="167.43" width="6" height="30.47"/><rect class="cls-2" x="132.85" y="176.8" width="6" height="21.09"/><rect class="cls-2" x="142.23" y="167.43" width="6" height="30.47"/><rect class="cls-2" x="151.6" y="162.74" width="6" height="35.16"/><rect class="cls-2" x="160.98" y="172.12" width="6" height="25.78"/><rect class="cls-2" x="170.35" y="162.74" width="6" height="35.16"/><rect class="cls-2" x="179.73" y="153.37" width="6" height="44.53"/><rect class="cls-2" x="123.48" y="176.8" width="6" height="21.09"/><rect class="cls-2" x="104.73" y="176.8" width="6" height="21.09"/><rect class="cls-2" x="95.35" y="186.18" width="6" height="11.72"/><rect class="cls-2" x="85.98" y="188.52" width="6" height="9.38"/><rect class="cls-2" x="76.6" y="188.52" width="6" height="9.38"/><rect class="cls-2" x="67.23" y="188.52" width="6" height="9.38"/></g></g></svg>