<svg xmlns="http://www.w3.org/2000/svg" xmlns:xlink="http://www.w3.org/1999/xlink" viewBox="0 0 250.48 250.48"><defs><style>.cls-1{fill:url(#linear-gradient);}.cls-2{fill:#fff;}</style><linearGradient id="linear-gradient" y1="125.24" x2="250.48" y2="125.24" gradientUnits="userSpaceOnUse"><stop offset="0" stop-color="#f99f34"/><stop offset="0.24" stop-color="#f2853b"/><stop offset="0.48" stop-color="#ed723f"/><stop offset="0.73" stop-color="#ea6742"/><stop offset="1" stop-color="#e96343"/></linearGradient></defs><title>launch</title><g id="Layer_2" data-name="Layer 2"><g id="Layer_1-2" data-name="Layer 1"><circle class="cls-1" cx="125.24" cy="125.24" r="125.24"/></g><g id="Layer_3" data-name="Layer 3"><path class="cls-2" d="M103.84,181.73a3,3,0,0,1-2.12-.88L73.63,152.77a3,3,0,0,1-.44-3.69A326.73,326.73,0,0,1,111,100.6c30.87-32.45,60.73-48.91,88.76-48.91a3,3,0,0,1,3,3c0,28-16.45,57.9-48.91,88.77a327,327,0,0,1-48.48,37.83A3,3,0,0,1,103.84,181.73ZM79.58,150.22l24.68,24.69c13.38-8.64,89.76-60.41,92.46-117.14C140,60.46,88.22,136.83,79.58,150.22Z"/><path class="cls-2" d="M92.14,184.07a3,3,0,0,1-2.12-.88L71.29,164.47a3,3,0,0,1,0-4.24l7-7,4.25,4.25-4.9,4.9,14.48,14.48,4.9-4.9,4.24,4.24-7,7A3,3,0,0,1,92.14,184.07Z"/><path class="cls-2" d="M54.69,202.79a3,3,0,0,1-3-3c0-.72.17-17.79,14.92-32.54l4.25,4.24a45.52,45.52,0,0,0-12.83,25,45.54,45.54,0,0,0,25-12.82l4.24,4.24C72.49,202.62,55.41,202.79,54.69,202.79Z"/><path class="cls-2" d="M160,106.84a12.36,12.36,0,1,1,12.36-12.36A12.37,12.37,0,0,1,160,106.84Zm0-18.72a6.36,6.36,0,1,0,6.36,6.36A6.36,6.36,0,0,0,160,88.12Z"/><path class="cls-2" d="M138.94,127.9a12.36,12.36,0,1,1,12.36-12.36A12.37,12.37,0,0,1,138.94,127.9Zm0-18.72a6.36,6.36,0,1,0,6.36,6.36A6.37,6.37,0,0,0,138.94,109.18Z"/><path class="cls-2" d="M117.88,149a12.36,12.36,0,1,1,12.36-12.36A12.37,12.37,0,0,1,117.88,149Zm0-18.72a6.36,6.36,0,1,0,6.36,6.36A6.37,6.37,0,0,0,117.88,130.24Z"/><path class="cls-2" d="M138.94,202.79h-23.4a3,3,0,0,1-3-3V181.07h6v15.72H137l39-87.15,5.48,2.45L141.68,201A3,3,0,0,1,138.94,202.79Z"/><path class="cls-2" d="M73.42,141.94H54.69a3,3,0,0,1-3-3v-23.4a3,3,0,0,1,1.78-2.74L142.4,73l2.45,5.47-87.16,39v18.46H73.42Z"/><path class="cls-2" d="M195.11,81.1a21.75,21.75,0,0,1-21.72-21.73h6A15.74,15.74,0,0,0,195.11,75.1Z"/></g></g></svg>