<svg xmlns="http://www.w3.org/2000/svg" xmlns:xlink="http://www.w3.org/1999/xlink" viewBox="0 0 250.48 250.48"><defs><style>.cls-1{fill:url(#linear-gradient);}.cls-2{fill:#fff;}</style><linearGradient id="linear-gradient" y1="125.24" x2="250.48" y2="125.24" gradientUnits="userSpaceOnUse"><stop offset="0" stop-color="#f99f34"/><stop offset="0.24" stop-color="#f2853b"/><stop offset="0.48" stop-color="#ed723f"/><stop offset="0.73" stop-color="#ea6742"/><stop offset="1" stop-color="#e96343"/></linearGradient></defs><title>license</title><g id="Layer_2" data-name="Layer 2"><g id="Layer_1-2" data-name="Layer 1"><circle class="cls-1" cx="125.24" cy="125.24" r="125.24"/></g><g id="Layer_5" data-name="Layer 5"><polygon class="cls-2" points="193.66 77.56 172.34 77.56 172.34 56.24 178.34 56.24 178.34 71.56 193.66 71.56 193.66 77.56"/><path class="cls-2" d="M193.66,182.92H166.18v-6h24.48V75.81L174.1,59.24H100.47V176.92H125v6H97.47a3,3,0,0,1-3-3V56.24a3,3,0,0,1,3-3h77.87a3,3,0,0,1,2.12.88l18.32,18.32a3,3,0,0,1,.88,2.12V179.92A3,3,0,0,1,193.66,182.92Z"/><path class="cls-2" d="M131.82,201.24a3,3,0,0,1-3-3V170.76h6v21.08l8.82-7.35a3,3,0,0,1,3.85,0l8.82,7.35V170.76h6v27.48a3,3,0,0,1-4.92,2.31l-11.83-9.85-11.82,9.85A3,3,0,0,1,131.82,201.24Z"/><path class="cls-2" d="M145.56,173.76a9.9,9.9,0,0,1-9.12-6.12,29,29,0,0,1-3.4-1.41,9.84,9.84,0,0,1-12.72-12.72,29,29,0,0,1-1.41-3.4,9.86,9.86,0,0,1,0-18.25,29,29,0,0,1,1.41-3.4A9.84,9.84,0,0,1,133,115.74a29,29,0,0,1,3.4-1.41,9.86,9.86,0,0,1,18.25,0,29,29,0,0,1,3.4,1.41,9.84,9.84,0,0,1,12.72,12.72,29,29,0,0,1,1.41,3.4,9.86,9.86,0,0,1,0,18.25,29,29,0,0,1-1.41,3.4,9.84,9.84,0,0,1-12.72,12.72,29,29,0,0,1-3.4,1.41A9.9,9.9,0,0,1,145.56,173.76Zm-12.51-14.39,1.54.89a22.14,22.14,0,0,0,5,2.09l1.78.49.36,1.81a3.87,3.87,0,0,0,7.59,0l.36-1.81,1.78-.49a22.33,22.33,0,0,0,5-2.09l1.54-.89,1.52.93a3.75,3.75,0,0,0,2,.59,3.88,3.88,0,0,0,3.87-3.87,3.81,3.81,0,0,0-.59-2L164,153.5l.88-1.54a22.33,22.33,0,0,0,2.09-5l.49-1.78,1.81-.36a3.87,3.87,0,0,0,0-7.59l-1.81-.36-.49-1.78a22.33,22.33,0,0,0-2.09-5l-.88-1.54.92-1.52a3.75,3.75,0,0,0,.59-2,3.88,3.88,0,0,0-3.87-3.87,3.83,3.83,0,0,0-2,.58l-1.52.93-1.54-.88a21.88,21.88,0,0,0-5-2.09l-1.78-.49-.36-1.81a3.87,3.87,0,0,0-7.59,0l-.36,1.81-1.78.49a21.88,21.88,0,0,0-5,2.09l-1.54.88-1.52-.93a3.83,3.83,0,0,0-2-.58,3.88,3.88,0,0,0-3.87,3.87,3.75,3.75,0,0,0,.59,2l.92,1.52-.88,1.54a21.88,21.88,0,0,0-2.09,5l-.49,1.78-1.81.36a3.87,3.87,0,0,0,0,7.59l1.81.36.49,1.78a21.88,21.88,0,0,0,2.09,5l.88,1.54-.92,1.51a3.81,3.81,0,0,0-.59,2,3.88,3.88,0,0,0,3.87,3.87,3.75,3.75,0,0,0,2-.59Z"/><path class="cls-2" d="M145.56,157.73A16.75,16.75,0,1,1,162.31,141,16.76,16.76,0,0,1,145.56,157.73Zm0-27.49A10.75,10.75,0,1,0,156.31,141,10.75,10.75,0,0,0,145.56,130.24Z"/><rect class="cls-2" x="69.98" y="176.92" width="13.74" height="6"/><rect class="cls-2" x="69.98" y="140.27" width="13.74" height="6"/><rect class="cls-2" x="69.98" y="64.69" width="13.74" height="6"/><path class="cls-2" d="M76.85,201.24a3,3,0,0,1-2.57-1.45l-6.87-11.46a3,3,0,0,1-.43-1.54V63.11a9.88,9.88,0,0,1,19.75,0V186.79a3,3,0,0,1-.43,1.54l-6.87,11.46A3,3,0,0,1,76.85,201.24ZM73,186l3.87,6.45L80.73,186V63.11a3.88,3.88,0,0,0-7.75,0Z"/><rect class="cls-2" x="108.92" y="64.69" width="27.48" height="6"/><rect class="cls-2" x="108.92" y="80.73" width="73.29" height="6"/><rect class="cls-2" x="108.92" y="89.89" width="73.29" height="6"/><rect class="cls-2" x="108.92" y="99.05" width="73.29" height="6"/><path class="cls-2" d="M63.82,120.37h-6V76.85a3,3,0,0,1,3-3H83.73v6H63.82Z"/></g></g></svg>