<?xml version="1.0" encoding="utf-8"?>
<!-- Generator: Adobe Illustrator 22.0.1, SVG Export Plug-In . SVG Version: 6.00 Build 0)  -->
<svg version="1.1" xmlns="http://www.w3.org/2000/svg" xmlns:xlink="http://www.w3.org/1999/xlink" x="0px" y="0px"
	 viewBox="0 0 447.7 399.6" style="enable-background:new 0 0 447.7 399.6;" xml:space="preserve">
<style type="text/css">
	.st0{fill:url(#SVGID_1_);}
	.st1{fill:#F9F7F7;}
</style>
<g id="Layer_3">
	<linearGradient id="SVGID_1_" gradientUnits="userSpaceOnUse" x1="24.025" y1="199.81" x2="423.645" y2="199.81">
		<stop  offset="0" style="stop-color:#FD9F31"/>
		<stop  offset="1" style="stop-color:#E96443"/>
	</linearGradient>
	<circle class="st0" cx="223.8" cy="199.8" r="199.8"/>
</g>
<g id="Layer_1">
	<title>Asset 7</title>
	<g>
		<polygon class="st1" points="140.9,296.4 122.5,296.4 122.5,296.4 140.9,296.4 140.9,278.2 		"/>
		<path class="st1" d="M266.2,195.1c-23.5-11.9-47-23.7-70.6-35.5c-5-2.5-8.5-0.3-8.5,5.4c0,0,0,0,0,0c0-5.6,3.5-7.9,8.5-5.4
			C219.2,171.4,242.7,183.3,266.2,195.1c2,1,3.5,2.4,3.5,4.8c0,0,0,0,0,0C269.8,197.5,268.3,196.1,266.2,195.1z"/>
		<rect x="233" y="103.1" class="st1" width="0" height="18.3"/>
		<polygon class="st1" points="233,278.2 233,296.5 233,296.5 		"/>
		<rect x="187" y="103.1" class="st1" width="0" height="18.3"/>
		<path class="st1" d="M290.4,139.8c5.3,0,7.3,2,7.3,7.3c0,0,0,0,0,0C297.7,141.8,295.7,139.8,290.4,139.8l-133.3,0
			c-1.5,0-2.8,0.2-3.8,0.6c1-0.4,2.3-0.6,3.8-0.6H290.4z"/>
		<polygon class="st1" points="279.1,278.2 279.1,296.4 279.1,296.4 		"/>
		<path class="st1" d="M297.7,252.1c0,4-0.9,6.1-3.3,7.1C296.8,258.3,297.7,256.2,297.7,252.1L297.7,252.1
			C297.7,252.1,297.7,252.1,297.7,252.1z"/>
		<polygon class="st1" points="186.9,296.5 168.6,296.5 168.6,296.5 186.9,296.5 186.9,278.2 		"/>
		<polygon class="st1" points="325.2,278.2 325.2,296.4 325.3,296.4 		"/>
		<polygon class="st1" points="279.1,103.1 279.1,103.1 279.1,121.4 		"/>
		<polygon class="st1" points="214.7,103.1 214.7,121.4 214.8,103.1 		"/>
		<polygon class="st1" points="168.7,103.1 168.7,121.4 168.7,103.1 		"/>
		<path class="st1" d="M269.7,199.9c0,2.4-1.6,3.7-3.7,4.7c-23.3,11.8-46.7,23.5-70.1,35.3c-5.5,2.8-8.9,0.6-8.9-5.6c0,0,0,0,0,0
			c0-11.5,0-23,0-34.5c0,0,0,0,0,0c0-11.6,0-23.2,0-34.8c0,0,0,0,0,0c0-5.6,3.5-7.9,8.5-5.4c23.5,11.8,47.1,23.7,70.6,35.5
			C268.3,196.1,269.8,197.5,269.7,199.9C269.7,199.9,269.7,199.9,269.7,199.9C269.7,199.9,269.7,199.9,269.7,199.9z"/>
		<path class="st1" d="M266.2,195.1c-23.5-11.8-47.1-23.7-70.6-35.5c-5-2.5-8.5-0.3-8.5,5.4c0,11.6,0,23.2,0,34.8c0,0,0,0,0,0
			c0,11.5,0,23,0,34.5c0,6.2,3.4,8.4,8.9,5.6c23.3-11.8,46.7-23.5,70.1-35.3c2-1,3.6-2.3,3.7-4.7
			C269.8,197.5,268.3,196.1,266.2,195.1z"/>
		<path class="st1" d="M158,259.8c-6.3,0-8-1.7-8-8c0-35,0-70.1,0-105.1c0-3.3,1-5.4,3.2-6.3c-2.2,0.9-3.2,3-3.2,6.3
			c0,35,0,70.1,0,105.1C150,258.2,151.7,259.8,158,259.8l131.9,0c1.9,0,3.3-0.2,4.4-0.6c-1.1,0.4-2.6,0.6-4.4,0.6H158z"/>
		<path class="st1" d="M266.1,204.6c-23.4,11.8-46.7,23.5-70.1,35.3c-5.5,2.8-8.9,0.6-8.9-5.6c0,0,0,0,0,0c0,6.2,3.5,8.4,8.9,5.6
			C219.4,228.2,242.7,216.4,266.1,204.6c2-1,3.6-2.3,3.7-4.7c0,0,0,0,0,0C269.7,202.2,268.1,203.6,266.1,204.6z"/>
		<path class="st1" d="M352.7,274.7c0.1-4.9,0-9.7,0-14.5c-0.5-0.2-0.7-0.3-0.8-0.3c-6.7,0-13.4,0-20.2-0.1c-4.4,0-6.7-2.2-6.7-6.5
			c0-35.7,0-71.4,0-107.1c0-4.2,2.2-6.4,6.3-6.4c6,0,12.1,0,18.1,0h3.1V114c0-17.5-11.7-29.3-29.2-29.3H203.4c-26.7,0-53.4,0-80.1,0
			c-13.6,0-24.8,8.4-27.5,21.2c-1.1,5.2-0.8,10.7-0.9,16c-0.1,5.8,0,11.7,0,17.8c6.9,0,13.5,0,20.1,0c5.6,0,7.6,1.9,7.6,7.6v104.8
			c0,5.7-1.9,7.6-7.5,7.6H94.9c0,9.1,0,17.8,0,26.4c0.1,16.9,12,28.7,29,28.7c33.8,0,67.6,0,101.4,0c33.1,0,66.2,0,99.3,0
			c14.4,0,25.8-9.6,27.6-23.8C353,285.7,352.7,280.2,352.7,274.7z M306.9,103.1h18.3v18.3h-18.3V103.1z M260.8,103.1h18.3h0v18.3
			h-18.3V103.1z M214.7,103.1L214.7,103.1H233h0v18.3h0h-18.3V103.1z M168.7,103.1L168.7,103.1H187h0v18.3h0h-18.3V103.1z
			 M122.5,121.4v-18.3h18.3v18.3H122.5z M122.5,296.4L122.5,296.4v-18.2h18.4l0,18.2H122.5z M168.6,296.5L168.6,296.5v-18.3h18.3
			l0,18.3H168.6z M233,296.5h-18.4v0v-18.2H233V296.5L233,296.5L233,296.5z M279.1,296.5h-18.3v0v-18.3h18.3V296.5L279.1,296.5
			L279.1,296.5z M294.4,259.2c-1.1,0.4-2.6,0.6-4.4,0.6H158c-6.3,0-8-1.7-8-8c0-35,0-70.1,0-105.1c0-3.4,1-5.4,3.2-6.3
			c1-0.4,2.3-0.6,3.8-0.6h133.3c5.3,0,7.3,2,7.3,7.3c0,0,0,0,0,0v0c0,35,0,70.1,0,105.1l0,0C297.7,256.2,296.8,258.3,294.4,259.2z
			 M325.2,296.4h-18.4v0v-18.2h18.4V296.4L325.2,296.4L325.2,296.4z"/>
		<rect x="306.8" y="296.4" class="st1" width="18.4" height="0"/>
		<rect x="214.6" y="296.5" class="st1" width="18.4" height="0"/>
		<rect x="260.7" y="296.4" class="st1" width="18.3" height="0"/>
		<path class="st1" d="M297.7,252.1c0-35,0-70.1,0-105.1v0C297.7,182.1,297.7,217.1,297.7,252.1L297.7,252.1z"/>
	</g>
</g>
</svg>
